<svg xmlns="http://www.w3.org/2000/svg" viewBox="0 0 170.44 35.18"><defs><style>.cls-1{isolation:isolate;}.cls-2{fill:#2584ff;}.cls-2,.cls-3{opacity:0.8;}.cls-3{fill:#ff3400;mix-blend-mode:lighten;}.cls-4{fill:#fff;}</style></defs><g class="cls-1"><g id="Layer_2" data-name="Layer 2"><g id="Layer_22" data-name="Layer 22"><path class="cls-2" d="M28.6,17.67,16.79,2A5,5,0,0,0,8,3.52L.22,28.7A5,5,0,0,0,5,35.18a4.93,4.93,0,0,0,2.18-.5l19.61-9.5a5,5,0,0,0,1.81-7.51Z"/><path class="cls-3" d="M42.17,28.7,34.38,3.52A5,5,0,0,0,25.61,2L13.8,17.67a5,5,0,0,0,1.81,7.51l19.61,9.5A5,5,0,0,0,40.65,34,5,5,0,0,0,42.17,28.7Z"/><g class="cls-1"><path class="cls-4" d="M54.12,4.25h5.69l6,14.66h.26l6-14.66h5.69V26.07H73.29V11.87h-.18L67.47,26h-3L58.77,11.82h-.18V26.07H54.12Z"/><path class="cls-4" d="M88.86,26.39a8.26,8.26,0,0,1-4.28-1.06,7.18,7.18,0,0,1-2.79-3,9.56,9.56,0,0,1-1-4.42,9.55,9.55,0,0,1,1-4.43,7.2,7.2,0,0,1,2.79-3,9.19,9.19,0,0,1,8.57,0,7.2,7.2,0,0,1,2.79,3,9.55,9.55,0,0,1,1,4.43,9.56,9.56,0,0,1-1,4.42,7.18,7.18,0,0,1-2.79,3A8.27,8.27,0,0,1,88.86,26.39Zm0-3.52a2.78,2.78,0,0,0,1.88-.64,4,4,0,0,0,1.15-1.76,7.76,7.76,0,0,0,.39-2.55,7.76,7.76,0,0,0-.39-2.55,4,4,0,0,0-1.15-1.76A2.74,2.74,0,0,0,88.89,13a2.86,2.86,0,0,0-1.92.65,4,4,0,0,0-1.16,1.76,7.76,7.76,0,0,0-.39,2.55,7.76,7.76,0,0,0,.39,2.55A4,4,0,0,0,87,22.23,2.91,2.91,0,0,0,88.89,22.87Z"/><path class="cls-4" d="M113.49,14.37l-4.15.26a2.23,2.23,0,0,0-.46-1A2.62,2.62,0,0,0,108,13a3.3,3.3,0,0,0-1.36-.26,3.4,3.4,0,0,0-1.78.44,1.34,1.34,0,0,0-.72,1.18,1.24,1.24,0,0,0,.47,1,3.62,3.62,0,0,0,1.6.65l3,.6a7.29,7.29,0,0,1,3.55,1.57A3.73,3.73,0,0,1,113.86,21a4.46,4.46,0,0,1-.94,2.82,6.16,6.16,0,0,1-2.58,1.89,9.78,9.78,0,0,1-3.76.68A8.75,8.75,0,0,1,101.41,25a5.27,5.27,0,0,1-2.26-3.7l4.47-.24a2.25,2.25,0,0,0,1,1.51,3.48,3.48,0,0,0,2,.52,3.52,3.52,0,0,0,1.92-.47,1.36,1.36,0,0,0,.74-1.19,1.25,1.25,0,0,0-.52-1,3.74,3.74,0,0,0-1.58-.61l-2.83-.57a6.73,6.73,0,0,1-3.56-1.66,4.1,4.1,0,0,1-1.17-3,4.41,4.41,0,0,1,.86-2.72,5.43,5.43,0,0,1,2.42-1.76,10,10,0,0,1,3.66-.62,8.05,8.05,0,0,1,4.88,1.32A5.05,5.05,0,0,1,113.49,14.37Z"/><path class="cls-4" d="M121.27,16.61v9.46h-4.54V4.25h4.41v8.34h.19a4.7,4.7,0,0,1,1.79-2.27,5.47,5.47,0,0,1,3.1-.83,5.76,5.76,0,0,1,3,.75,5,5,0,0,1,2,2.12,7.1,7.1,0,0,1,.7,3.29V26.07h-4.54V16.46a3.31,3.31,0,0,0-.76-2.35,2.8,2.8,0,0,0-2.16-.84,3.3,3.3,0,0,0-1.63.39,2.66,2.66,0,0,0-1.11,1.14A3.81,3.81,0,0,0,121.27,16.61Z"/><path class="cls-4" d="M137.75,7.6A2.46,2.46,0,0,1,136,6.92a2.18,2.18,0,0,1,0-3.24,2.58,2.58,0,0,1,3.47,0,2.18,2.18,0,0,1,0,3.24A2.45,2.45,0,0,1,137.75,7.6Zm-2.29,18.47V9.71H140V26.07Z"/><path class="cls-4" d="M152.41,9.71v3.41H142.32V9.71Zm-7.78,16.36V8.53a5.79,5.79,0,0,1,.69-3,4.45,4.45,0,0,1,1.92-1.75A6.29,6.29,0,0,1,150,3.23a10.31,10.31,0,0,1,1.91.16,12.24,12.24,0,0,1,1.29.29l-.81,3.41a5.15,5.15,0,0,0-.65-.16,4.26,4.26,0,0,0-.8-.08,1.75,1.75,0,0,0-1.39.47,1.9,1.9,0,0,0-.4,1.29V26.07Z"/><path class="cls-4" d="M158,32.17a9.13,9.13,0,0,1-1.61-.13,6.62,6.62,0,0,1-1.24-.33l1-3.39a4,4,0,0,0,2,.19,1.92,1.92,0,0,0,1.31-1.28l.26-.69L153.88,9.71h4.77l3.39,12h.17l3.42-12,4.81,0-6.36,18.11a7.8,7.8,0,0,1-1.24,2.28,5.21,5.21,0,0,1-2,1.51A7,7,0,0,1,158,32.17Z"/></g></g></g></g></svg>